<?xml version="1.0" standalone="no"?>
<!DOCTYPE svg PUBLIC "-//W3C//DTD SVG 20010904//EN"
 "http://www.w3.org/TR/2001/REC-SVG-20010904/DTD/svg10.dtd">
<svg version="1.0" xmlns="http://www.w3.org/2000/svg"
 width="2000.000000pt" height="2000.000000pt" viewBox="0 0 2000.000000 2000.000000"
 preserveAspectRatio="xMidYMid meet">
<metadata>
Created by potrace 1.14, written by Peter Selinger 2001-2017
</metadata>
<g transform="translate(0.000000,2000.000000) scale(0.100000,-0.100000)"
fill="#000000" stroke="none">
<path d="M9368 16184 c-2 -1 -48 -5 -103 -9 -55 -3 -116 -7 -135 -9 -19 -3
-66 -8 -105 -11 -38 -4 -78 -9 -87 -10 -9 -2 -41 -6 -70 -9 -29 -4 -64 -8 -78
-11 -14 -3 -43 -8 -65 -10 -22 -3 -76 -12 -120 -21 -44 -9 -89 -17 -100 -19
-89 -9 -483 -114 -695 -185 -766 -254 -1471 -661 -2070 -1195 -80 -71 -434
-428 -490 -494 -30 -35 -62 -72 -70 -81 -8 -8 -33 -38 -55 -65 -21 -28 -42
-52 -46 -55 -3 -3 -55 -70 -115 -150 -315 -419 -528 -795 -759 -1345 -7 -16
-29 -75 -49 -130 -21 -55 -43 -116 -50 -135 -14 -36 -94 -297 -101 -327 -2
-10 -15 -58 -28 -108 -14 -49 -30 -116 -37 -148 -11 -55 -12 -57 -38 -50 -46
12 -121 7 -162 -12 -58 -26 -80 -78 -80 -185 l0 -83 -30 45 c-36 55 -156 170
-223 216 -91 61 -177 96 -242 98 -114 4 -169 -52 -161 -166 5 -71 43 -165 158
-392 88 -172 128 -258 128 -270 0 -3 8 -23 17 -44 9 -22 17 -41 18 -44 1 -3 6
-16 12 -30 18 -43 112 -321 134 -395 17 -60 38 -133 80 -285 5 -19 12 -45 14
-57 3 -12 24 -93 46 -180 23 -87 42 -165 44 -173 2 -8 9 -37 15 -65 6 -27 13
-57 15 -65 2 -8 17 -73 35 -145 17 -71 33 -138 35 -149 17 -80 75 -251 220
-646 117 -321 138 -376 146 -395 4 -11 43 -112 85 -225 100 -265 352 -926 369
-965 7 -16 43 -106 80 -200 77 -195 76 -194 140 -338 58 -131 51 -124 495
-457 39 -29 415 -305 509 -374 186 -135 854 -635 994 -745 83 -64 171 -132
196 -151 92 -71 296 -242 367 -307 104 -95 684 -331 1004 -408 108 -26 159
-38 180 -41 14 -3 39 -9 55 -14 27 -7 48 -12 135 -26 14 -3 48 -9 75 -14 28
-5 70 -12 95 -14 25 -3 54 -7 65 -10 33 -6 166 -19 335 -32 186 -15 704 -8
895 11 120 13 146 16 210 25 39 5 81 12 95 14 14 3 41 7 60 10 19 3 46 8 60
11 14 3 41 8 60 11 19 3 73 14 120 25 47 11 96 22 110 25 180 38 588 179 799
275 193 88 258 130 391 250 172 155 794 628 1654 1258 256 188 646 484 695
528 60 53 78 87 188 358 64 159 283 722 370 950 24 66 49 129 54 140 14 34
140 369 144 385 2 8 27 76 56 150 28 74 69 183 90 243 22 59 57 158 80 220
110 303 166 488 205 682 11 55 186 735 213 830 34 115 125 395 140 430 5 11
28 70 52 130 23 61 90 205 149 321 148 293 173 380 135 470 -20 49 -88 79
-161 71 -127 -13 -342 -163 -451 -315 l-30 -42 1 83 c0 99 -21 151 -75 179
-42 21 -110 28 -157 16 -19 -5 -36 -8 -38 -5 -3 3 -41 150 -59 227 -2 8 -17
62 -34 120 -91 320 -222 658 -374 970 -34 69 -60 127 -59 129 2 2 0 7 -5 10
-5 3 -25 35 -44 71 -19 36 -36 67 -39 70 -3 3 -14 23 -25 45 -11 22 -23 42
-26 45 -5 5 -39 60 -110 180 -18 30 -38 60 -44 66 -5 6 -19 27 -30 47 -11 20
-23 37 -27 37 -5 0 -8 5 -8 10 0 6 -5 16 -10 23 -6 7 -62 82 -126 167 -108
145 -233 299 -349 429 -83 94 -355 362 -450 446 -49 43 -99 87 -110 97 -167
149 -537 413 -780 558 -49 29 -101 60 -115 69 -66 40 -370 196 -460 235 -36
16 -90 40 -120 53 -306 139 -861 312 -1179 368 -19 3 -37 7 -40 9 -3 2 -28 7
-56 10 -27 4 -57 9 -65 11 -16 4 -54 10 -165 25 -141 20 -186 25 -295 35 -36
3 -85 8 -110 11 -52 6 -727 14 -732 8z"/>
<path d="M14636 5834 c-3 -9 -4 -19 -1 -24 3 -4 7 -25 11 -45 3 -21 8 -47 10
-59 7 -32 6 -227 -1 -261 -41 -206 -120 -261 -204 -144 -31 42 -91 190 -109
269 -6 25 -19 78 -28 119 -9 41 -25 82 -36 93 -17 17 -21 17 -47 4 -39 -21
-43 -36 -25 -102 12 -48 96 -266 147 -385 20 -45 16 -210 -6 -282 -20 -62 -59
-113 -92 -119 -31 -6 -85 27 -100 60 -5 12 -13 22 -17 22 -5 0 -8 8 -8 18 0
10 -4 22 -9 27 -4 6 -28 69 -52 140 -24 72 -49 141 -56 155 -7 14 -13 30 -13
36 0 5 -13 22 -28 37 -56 53 -125 24 -152 -65 -16 -54 -25 -152 -13 -145 5 3
10 23 11 44 4 64 21 95 51 91 37 -4 63 -49 111 -195 45 -135 46 -144 36 -263
-8 -104 -13 -124 -43 -210 -29 -83 -45 -112 -82 -152 -70 -77 -150 12 -186
207 -8 45 -21 208 -24 306 -1 9 -9 26 -18 38 -16 19 -22 20 -50 11 -18 -7 -35
-20 -38 -31 -6 -17 1 -104 10 -139 2 -8 7 -31 10 -50 11 -65 57 -265 64 -278
7 -12 -1 -93 -14 -152 -3 -14 -8 -35 -11 -47 -14 -70 -70 -155 -114 -173 -42
-17 -85 2 -109 49 -20 39 -46 154 -66 296 -5 33 -10 62 -20 105 -18 79 -44
111 -94 112 -36 1 -74 -30 -96 -77 -19 -41 -45 -117 -45 -133 0 -27 18 -1 28
40 13 50 45 90 66 82 18 -7 46 -49 52 -77 4 -20 15 -90 29 -179 4 -21 2 -38
-3 -38 -5 0 -9 -14 -10 -32 -5 -170 -95 -411 -185 -495 -152 -141 -328 -72
-287 112 5 22 19 63 32 90 12 28 23 52 23 55 0 3 7 16 14 28 25 46 49 129 47
163 -9 123 -131 145 -224 40 -41 -46 -83 -141 -63 -141 5 0 13 10 16 23 12 37
52 83 84 97 43 17 76 -6 91 -62 16 -56 8 -89 -49 -204 -59 -121 -73 -164 -73
-218 1 -43 -31 -126 -82 -211 -55 -93 -102 -140 -156 -155 -42 -12 -84 24 -99
84 -10 39 -8 54 19 134 37 112 46 187 30 236 -11 33 -20 41 -44 37 -5 -1 -16
4 -25 12 -55 47 -145 59 -216 28 -71 -32 -146 -114 -194 -214 -49 -102 -69
-190 -69 -298 0 -67 -4 -88 -27 -132 -88 -169 -216 -294 -319 -313 -70 -12
-107 58 -102 191 2 50 6 101 10 115 3 14 8 42 11 62 10 78 26 135 57 206 17
40 28 76 24 79 -10 11 -74 -27 -102 -60 -13 -15 -31 -54 -39 -85 -25 -89 -65
-214 -82 -252 -109 -246 -188 -360 -249 -360 -42 0 -56 53 -58 205 -1 144 4
191 34 313 28 117 27 120 -17 86 -59 -44 -71 -62 -84 -122 -15 -76 -63 -237
-85 -287 -10 -22 -18 -42 -19 -45 -4 -14 -43 -89 -59 -115 -84 -132 -136 -185
-182 -185 -58 0 -82 66 -48 131 8 17 14 35 12 40 -6 17 -107 -147 -103 -167 2
-10 4 -25 4 -31 2 -24 41 -53 71 -53 83 0 182 94 266 250 35 65 84 177 90 204
8 42 10 20 10 -97 -1 -140 12 -190 52 -210 15 -7 33 -12 40 -11 6 1 20 2 31 3
33 2 108 70 155 139 25 38 73 123 106 188 34 66 59 111 56 102 -11 -36 -18
-160 -12 -201 14 -90 87 -128 183 -96 131 44 263 174 367 360 l19 34 10 -30
c22 -66 74 -121 123 -131 66 -13 165 60 240 177 15 24 29 46 30 48 2 1 16 -11
33 -28 38 -39 87 -44 143 -15 70 36 180 182 229 304 13 30 24 57 25 59 2 2 15
-10 29 -27 73 -87 233 -52 363 79 90 91 168 288 188 474 l7 70 18 -84 c29
-134 80 -192 162 -185 39 4 91 34 115 66 7 9 18 23 26 30 35 36 80 185 85 288
1 8 11 -5 24 -29 28 -55 74 -79 119 -60 77 32 179 224 204 385 11 72 12 84 14
134 1 26 4 38 8 29 25 -57 70 -110 107 -125 133 -53 245 109 239 344 l-2 75
26 -33 c79 -101 170 -54 225 116 49 149 54 325 17 502 -13 57 -15 60 -24 36z
m-2362 -1879 c20 -8 36 -17 36 -18 0 -2 -9 -22 -20 -44 -43 -90 -66 -287 -45
-385 17 -75 -99 -218 -177 -218 -34 0 -70 42 -98 117 -26 67 -36 226 -19 287
6 21 12 48 15 59 14 77 106 191 167 209 40 11 104 8 141 -7z m96 -111 c0 -45
-29 -174 -39 -174 -9 0 -6 97 4 168 8 54 35 59 35 6z"/>
<path d="M4955 5690 c-3 -6 -3 -10 2 -11 4 0 27 -3 51 -5 24 -2 59 -11 79 -19
50 -21 163 -113 163 -133 0 -8 -102 -50 -225 -93 -82 -28 -379 -117 -415 -124
-8 -2 -58 -14 -110 -28 -299 -80 -290 -78 -415 -102 -38 -8 -80 -16 -93 -19
-13 -3 -44 -6 -68 -7 -49 -3 -52 -15 -11 -39 15 -8 46 -29 69 -46 53 -38 69
-37 224 11 65 20 125 39 133 40 9 2 63 18 121 35 58 17 170 50 250 73 80 22
253 77 386 122 162 54 244 77 251 70 5 -5 47 -55 93 -110 47 -55 98 -115 114
-132 56 -63 59 -70 28 -77 -15 -3 -88 -24 -162 -46 -74 -23 -143 -43 -152 -45
-33 -7 -253 -76 -356 -111 -305 -104 -427 -174 -451 -260 -31 -114 102 -245
319 -314 74 -24 216 -47 273 -45 20 1 37 1 37 -1 0 -2 -13 -25 -30 -51 -86
-135 14 -280 222 -322 59 -13 181 -15 233 -6 219 41 388 221 336 358 -25 66
-125 136 -217 153 -22 3 -48 8 -59 11 -43 8 -154 3 -222 -11 -79 -17 -128 -37
-191 -79 -39 -26 -51 -29 -126 -28 -152 2 -312 59 -401 144 -40 38 -45 49 -45
86 0 24 7 55 16 69 20 33 82 80 154 116 125 63 537 201 798 267 l130 33 49
-45 c63 -59 124 -94 198 -113 80 -21 118 -20 140 4 18 19 17 20 -3 20 -11 0
-24 -5 -27 -10 -9 -15 -53 -7 -101 18 -57 29 -158 132 -321 327 -266 319 -332
386 -424 432 -35 17 -74 34 -85 37 -39 12 -153 15 -159 6z m742 -1337 c20 -9
43 -30 53 -46 17 -27 17 -33 3 -81 -28 -97 -126 -190 -250 -241 -85 -34 -116
-40 -204 -40 -64 0 -81 4 -112 25 -20 14 -40 34 -44 45 -36 109 101 268 283
329 111 36 207 40 271 9z"/>
<path d="M6167 4036 c-39 -8 -46 -13 -42 -27 22 -68 -41 -145 -220 -271 -61
-43 -115 -82 -122 -88 -7 -5 -17 -10 -23 -10 -5 0 -10 -4 -10 -10 0 -5 -4 -10
-9 -10 -5 0 -73 -43 -152 -95 -79 -53 -151 -100 -159 -105 -413 -270 -784
-498 -970 -596 -65 -34 -106 -48 -145 -48 -64 -1 -64 -13 -1 -31 65 -19 152
-18 216 3 40 13 396 245 655 426 50 34 182 126 295 204 113 78 210 145 215
149 21 17 242 160 287 187 100 59 369 131 454 122 97 -10 122 -93 45 -157 -20
-16 -91 -51 -159 -77 -129 -49 -201 -95 -239 -151 -32 -47 -29 -77 10 -115 59
-59 215 -74 442 -41 43 6 168 40 200 55 11 5 42 18 69 29 87 37 41 34 -66 -4
-143 -51 -214 -64 -354 -64 -102 0 -128 3 -162 20 -98 49 -52 115 133 193 120
51 213 95 228 110 6 6 24 19 39 29 55 35 77 123 41 164 -53 60 -218 63 -436 8
-54 -14 -100 -25 -102 -25 -3 0 13 17 36 37 35 31 69 80 75 106 1 4 2 8 3 10
11 13 7 49 -7 64 -15 17 -23 18 -65 9z"/>
<path d="M7009 3679 c-31 -5 -72 -15 -90 -24 l-34 -15 45 6 c116 16 126 13
117 -36 -12 -55 -78 -127 -315 -339 -46 -41 -104 -90 -128 -109 -24 -19 -44
-38 -44 -42 0 -4 31 -10 68 -13 l69 -7 85 83 c186 179 236 220 328 270 88 48
141 63 169 48 11 -7 21 -19 21 -29 0 -29 -45 -93 -118 -168 -7 -8 -18 -14 -23
-14 -5 0 -9 -4 -9 -10 0 -25 75 -8 170 40 157 79 280 104 319 66 21 -21 -15
-72 -107 -153 -255 -225 -376 -386 -409 -543 -31 -147 44 -292 174 -338 150
-53 378 -2 587 131 27 17 44 33 38 35 -5 1 -34 -13 -64 -32 -122 -78 -281
-127 -396 -122 -89 4 -138 23 -181 68 -74 80 -80 212 -16 352 63 137 157 242
356 397 143 110 179 149 179 187 -1 92 -135 113 -310 49 -52 -19 -103 -38
-113 -42 -14 -6 -12 3 12 41 34 53 40 104 15 125 -35 29 -128 12 -259 -46
l-60 -27 27 29 c15 15 34 45 43 67 26 62 4 97 -75 118 -8 2 -40 1 -71 -3z"/>
<path d="M8311 3338 c-74 -11 -154 -46 -240 -103 -135 -91 -227 -223 -238
-341 -14 -157 89 -204 297 -135 50 17 92 31 93 31 1 0 2 -14 3 -31 3 -72 55
-108 153 -103 140 5 375 126 519 264 41 40 34 52 -10 16 -149 -120 -225 -168
-322 -205 -83 -31 -147 -36 -191 -16 -31 15 -35 21 -35 56 0 69 22 102 107
164 43 32 87 67 97 79 11 12 27 30 37 41 29 33 34 90 10 114 -12 12 -21 29
-21 39 0 24 -55 89 -91 108 -44 22 -108 31 -168 22z m119 -44 c36 -8 87 -50
106 -86 15 -30 15 -32 -2 -45 -10 -7 -22 -13 -26 -13 -4 0 -23 -12 -40 -27
-104 -90 -170 -169 -213 -253 -28 -55 -78 -84 -169 -98 -113 -18 -151 32 -122
158 18 75 99 205 164 262 106 94 202 126 302 102z m130 -210 c0 -18 -75 -95
-130 -134 l-35 -25 40 55 c76 105 125 146 125 104z"/>
<path d="M9482 3272 c-59 -24 -66 -30 -109 -101 -136 -225 -410 -492 -510
-495 -34 -1 -40 3 -55 33 -19 38 -11 66 29 111 13 14 23 29 23 33 0 9 -47 -26
-113 -85 -47 -42 -56 -86 -24 -124 43 -49 139 -35 243 36 67 46 209 191 309
315 9 11 -2 -16 -24 -60 -54 -107 -68 -151 -67 -206 3 -74 42 -116 116 -123
49 -4 163 24 233 58 40 19 110 65 157 103 87 70 204 199 194 214 -3 5 -23 -12
-45 -39 -142 -167 -298 -269 -423 -279 -60 -5 -64 -4 -85 23 -20 25 -22 37
-17 85 3 31 13 79 21 105 26 77 124 273 173 342 24 35 42 67 40 71 -2 5 -31
-3 -66 -17z"/>
</g>
</svg>
